# Blender 4.4.0
# www.blender.org
o Cylinder
v -0.000000 0.007428 -0.920796
v 0.000000 0.006842 -1.000000
v 0.179638 0.007428 -0.903103
v 0.195090 0.006842 -0.980785
v 0.352374 0.007428 -0.850705
v 0.382683 0.006842 -0.923880
v 0.511567 0.007428 -0.765614
v 0.555570 0.006842 -0.831470
v 0.651101 0.007428 -0.651101
v 0.707107 0.006842 -0.707107
v 0.765614 0.007428 -0.511567
v 0.831470 0.006842 -0.555570
v 0.850705 0.007428 -0.352374
v 0.923880 0.006842 -0.382683
v 0.903103 0.007428 -0.179638
v 0.980785 0.006842 -0.195090
v 0.920796 0.007428 -0.000000
v 1.000000 0.006842 0.000000
v 0.903103 0.007428 0.179638
v 0.980785 0.006842 0.195090
v 0.850705 0.007428 0.352374
v 0.923880 0.006842 0.382683
v 0.765614 0.007428 0.511567
v 0.831470 0.006842 0.555570
v 0.651101 0.007428 0.651101
v 0.707107 0.006842 0.707107
v 0.511567 0.007428 0.765614
v 0.555570 0.006842 0.831470
v 0.352374 0.007428 0.850705
v 0.382683 0.006842 0.923880
v 0.179638 0.007428 0.903103
v 0.195090 0.006842 0.980785
v 0.000000 0.007428 0.920796
v 0.000000 0.006842 1.000000
v -0.179638 0.007428 0.903103
v -0.195090 0.006842 0.980785
v -0.352374 0.007428 0.850705
v -0.382683 0.006842 0.923880
v -0.511567 0.007428 0.765614
v -0.555570 0.006842 0.831470
v -0.651101 0.007428 0.651101
v -0.707107 0.006842 0.707107
v -0.765614 0.007428 0.511567
v -0.831470 0.006842 0.555570
v -0.850705 0.007428 0.352374
v -0.923880 0.006842 0.382683
v -0.903103 0.007428 0.179638
v -0.980785 0.006842 0.195090
v -0.920796 0.007428 0.000000
v -1.000000 0.006842 0.000000
v -0.903103 0.007428 -0.179638
v -0.980785 0.006842 -0.195090
v -0.850705 0.007428 -0.352374
v -0.923880 0.006842 -0.382683
v -0.765614 0.007428 -0.511567
v -0.831470 0.006842 -0.555570
v -0.651101 0.007428 -0.651101
v -0.707107 0.006842 -0.707107
v -0.511567 0.007428 -0.765614
v -0.555570 0.006842 -0.831470
v -0.352374 0.007428 -0.850705
v -0.382683 0.006842 -0.923880
v -0.179638 0.007428 -0.903103
v -0.195090 0.006842 -0.980785
v -0.000000 0.016789 -0.920796
v 0.000000 0.016204 -1.000000
v 0.195090 0.016204 -0.980785
v 0.179638 0.016789 -0.903103
v 0.382683 0.016204 -0.923880
v 0.352374 0.016789 -0.850705
v 0.555570 0.016204 -0.831470
v 0.511567 0.016789 -0.765614
v 0.707107 0.016204 -0.707107
v 0.651101 0.016789 -0.651101
v 0.831470 0.016204 -0.555570
v 0.765614 0.016789 -0.511567
v 0.923880 0.016204 -0.382683
v 0.850705 0.016789 -0.352374
v 0.980785 0.016204 -0.195090
v 0.903103 0.016789 -0.179638
v 1.000000 0.016204 -0.000000
v 0.920796 0.016789 -0.000000
v 0.980785 0.016204 0.195090
v 0.903103 0.016789 0.179638
v 0.923880 0.016204 0.382683
v 0.850705 0.016789 0.352374
v 0.831470 0.016204 0.555570
v 0.765614 0.016789 0.511567
v 0.707107 0.016204 0.707107
v 0.651101 0.016789 0.651101
v 0.555570 0.016204 0.831470
v 0.511567 0.016789 0.765614
v 0.382683 0.016204 0.923880
v 0.352374 0.016789 0.850705
v 0.195090 0.016204 0.980785
v 0.179638 0.016789 0.903103
v 0.000000 0.016204 1.000000
v 0.000000 0.016789 0.920796
v -0.195090 0.016204 0.980785
v -0.179638 0.016789 0.903103
v -0.382683 0.016204 0.923880
v -0.352374 0.016789 0.850705
v -0.555570 0.016204 0.831470
v -0.511567 0.016789 0.765614
v -0.707107 0.016204 0.707107
v -0.651101 0.016789 0.651101
v -0.831470 0.016204 0.555570
v -0.765614 0.016789 0.511567
v -0.923880 0.016204 0.382683
v -0.850705 0.016789 0.352374
v -0.980785 0.016204 0.195090
v -0.903103 0.016789 0.179638
v -1.000000 0.016204 -0.000000
v -0.920796 0.016789 0.000000
v -0.980785 0.016204 -0.195090
v -0.903103 0.016789 -0.179638
v -0.923880 0.016204 -0.382683
v -0.850705 0.016789 -0.352374
v -0.831470 0.016204 -0.555570
v -0.765614 0.016789 -0.511567
v -0.707107 0.016204 -0.707107
v -0.651101 0.016789 -0.651101
v -0.555570 0.016204 -0.831470
v -0.511567 0.016789 -0.765614
v -0.382683 0.016204 -0.923880
v -0.352374 0.016789 -0.850705
v -0.195090 0.016204 -0.980785
v -0.179638 0.016789 -0.903103
vn -0.0007 -1.0000 0.0074
vn -0.0022 -1.0000 0.0071
vn -0.0035 -1.0000 0.0066
vn -0.0047 -1.0000 0.0057
vn -0.0057 -1.0000 0.0047
vn -0.0066 -1.0000 0.0035
vn -0.0071 -1.0000 0.0022
vn -0.0074 -1.0000 0.0007
vn -0.0074 -1.0000 -0.0007
vn -0.0071 -1.0000 -0.0022
vn -0.0066 -1.0000 -0.0035
vn -0.0057 -1.0000 -0.0047
vn -0.0047 -1.0000 -0.0057
vn -0.0035 -1.0000 -0.0066
vn -0.0022 -1.0000 -0.0071
vn -0.0007 -1.0000 -0.0074
vn 0.0007 -1.0000 -0.0074
vn 0.0022 -1.0000 -0.0071
vn 0.0035 -1.0000 -0.0066
vn 0.0047 -1.0000 -0.0057
vn 0.0057 -1.0000 -0.0047
vn 0.0066 -1.0000 -0.0035
vn 0.0071 -1.0000 -0.0022
vn 0.0074 -1.0000 -0.0007
vn 0.0074 -1.0000 0.0007
vn 0.0071 -1.0000 0.0022
vn 0.0066 -1.0000 0.0035
vn 0.0057 -1.0000 0.0047
vn 0.0047 -1.0000 0.0057
vn 0.0035 -1.0000 0.0066
vn 0.0022 -1.0000 0.0071
vn 0.0007 -1.0000 0.0074
vn 0.0007 1.0000 -0.0074
vn 0.0022 1.0000 -0.0071
vn 0.0035 1.0000 -0.0066
vn 0.0047 1.0000 -0.0057
vn 0.0057 1.0000 -0.0047
vn 0.0066 1.0000 -0.0035
vn 0.0071 1.0000 -0.0022
vn 0.0074 1.0000 -0.0007
vn 0.0074 1.0000 0.0007
vn 0.0071 1.0000 0.0022
vn 0.0066 1.0000 0.0035
vn 0.0057 1.0000 0.0047
vn 0.0047 1.0000 0.0057
vn 0.0035 1.0000 0.0066
vn 0.0022 1.0000 0.0071
vn 0.0007 1.0000 0.0074
vn -0.0007 1.0000 0.0074
vn -0.0022 1.0000 0.0071
vn -0.0035 1.0000 0.0066
vn -0.0047 1.0000 0.0057
vn -0.0057 1.0000 0.0047
vn -0.0066 1.0000 0.0035
vn -0.0071 1.0000 0.0022
vn -0.0074 1.0000 0.0007
vn -0.0074 1.0000 -0.0007
vn -0.0071 1.0000 -0.0022
vn -0.0066 1.0000 -0.0035
vn -0.0057 1.0000 -0.0047
vn -0.0047 1.0000 -0.0057
vn -0.0035 1.0000 -0.0066
vn -0.0022 1.0000 -0.0071
vn -0.0007 1.0000 -0.0074
vn 0.9952 -0.0000 0.0980
vn -0.0980 -0.0000 0.9952
vn -0.9569 -0.0000 -0.2903
vn -0.9952 -0.0000 0.0980
vn 0.0980 -0.0000 -0.9952
vn 0.9569 -0.0000 0.2903
vn -0.2903 -0.0000 0.9569
vn -0.8819 -0.0000 -0.4714
vn -0.9952 -0.0000 -0.0980
vn 0.2903 -0.0000 -0.9569
vn 0.8819 -0.0000 0.4714
vn -0.4714 -0.0000 0.8819
vn -0.7730 -0.0000 -0.6344
vn 0.4714 -0.0000 -0.8819
vn 0.7730 -0.0000 0.6344
vn -0.6344 -0.0000 0.7730
vn -0.6344 -0.0000 -0.7730
vn 0.6344 -0.0000 -0.7730
vn 0.6344 -0.0000 0.7730
vn -0.7730 -0.0000 0.6344
vn -0.4714 -0.0000 -0.8819
vn 0.7730 -0.0000 -0.6344
vn 0.4714 -0.0000 0.8819
vn -0.8819 -0.0000 0.4714
vn -0.2903 -0.0000 -0.9569
vn 0.8819 -0.0000 -0.4714
vn 0.2903 -0.0000 0.9569
vn -0.9569 -0.0000 0.2903
vn -0.0980 -0.0000 -0.9952
vn 0.0980 -0.0000 0.9952
vn 0.9569 -0.0000 -0.2903
vn 0.9952 -0.0000 -0.0980
vt 0.750000 0.490000
vt 0.750000 0.470991
vt 0.793113 0.466745
vt 0.796822 0.485388
vt 0.834570 0.454169
vt 0.841844 0.471731
vt 0.872776 0.433747
vt 0.883337 0.449553
vt 0.906264 0.406264
vt 0.919706 0.419706
vt 0.933747 0.372776
vt 0.949553 0.383337
vt 0.954169 0.334570
vt 0.971731 0.341844
vt 0.966745 0.293113
vt 0.985388 0.296822
vt 0.970991 0.250000
vt 0.990000 0.250000
vt 0.966745 0.206887
vt 0.985388 0.203178
vt 0.954169 0.165430
vt 0.971731 0.158156
vt 0.933747 0.127224
vt 0.949553 0.116663
vt 0.906264 0.093736
vt 0.919706 0.080294
vt 0.872776 0.066253
vt 0.883337 0.050447
vt 0.834570 0.045831
vt 0.841844 0.028269
vt 0.793113 0.033255
vt 0.796822 0.014612
vt 0.750000 0.029009
vt 0.750000 0.010000
vt 0.706887 0.033255
vt 0.703178 0.014612
vt 0.665430 0.045831
vt 0.658156 0.028269
vt 0.627224 0.066253
vt 0.616663 0.050447
vt 0.593736 0.093736
vt 0.580294 0.080294
vt 0.566253 0.127224
vt 0.550447 0.116663
vt 0.545831 0.165430
vt 0.528269 0.158156
vt 0.533255 0.206887
vt 0.514612 0.203178
vt 0.529009 0.250000
vt 0.510000 0.250000
vt 0.533255 0.293113
vt 0.514612 0.296822
vt 0.545831 0.334570
vt 0.528269 0.341844
vt 0.566253 0.372776
vt 0.550447 0.383337
vt 0.593736 0.406264
vt 0.580294 0.419706
vt 0.627224 0.433747
vt 0.616663 0.449553
vt 0.665430 0.454169
vt 0.658156 0.471731
vt 0.706887 0.466745
vt 0.703178 0.485388
s 0
f 2/1/1 4/4/1 3/3/1 1/2/1
f 4/4/2 6/6/2 5/5/2 3/3/2
f 6/6/3 8/8/3 7/7/3 5/5/3
f 8/8/4 10/10/4 9/9/4 7/7/4
f 10/10/5 12/12/5 11/11/5 9/9/5
f 12/12/6 14/14/6 13/13/6 11/11/6
f 14/14/7 16/16/7 15/15/7 13/13/7
f 16/16/8 18/18/8 17/17/8 15/15/8
f 18/18/9 20/20/9 19/19/9 17/17/9
f 20/20/10 22/22/10 21/21/10 19/19/10
f 22/22/11 24/24/11 23/23/11 21/21/11
f 24/24/12 26/26/12 25/25/12 23/23/12
f 26/26/13 28/28/13 27/27/13 25/25/13
f 28/28/14 30/30/14 29/29/14 27/27/14
f 30/30/15 32/32/15 31/31/15 29/29/15
f 32/32/16 34/34/16 33/33/16 31/31/16
f 34/34/17 36/36/17 35/35/17 33/33/17
f 36/36/18 38/38/18 37/37/18 35/35/18
f 38/38/19 40/40/19 39/39/19 37/37/19
f 40/40/20 42/42/20 41/41/20 39/39/20
f 42/42/21 44/44/21 43/43/21 41/41/21
f 44/44/22 46/46/22 45/45/22 43/43/22
f 46/46/23 48/48/23 47/47/23 45/45/23
f 48/48/24 50/50/24 49/49/24 47/47/24
f 50/50/25 52/52/25 51/51/25 49/49/25
f 52/52/26 54/54/26 53/53/26 51/51/26
f 54/54/27 56/56/27 55/55/27 53/53/27
f 56/56/28 58/58/28 57/57/28 55/55/28
f 58/58/29 60/60/29 59/59/29 57/57/29
f 60/60/30 62/62/30 61/61/30 59/59/30
f 62/62/31 64/64/31 63/63/31 61/61/31
f 64/64/32 2/1/32 1/2/32 63/63/32
f 66/1/33 65/2/33 68/3/33 67/4/33
f 67/4/34 68/3/34 70/5/34 69/6/34
f 69/6/35 70/5/35 72/7/35 71/8/35
f 71/8/36 72/7/36 74/9/36 73/10/36
f 73/10/37 74/9/37 76/11/37 75/12/37
f 75/12/38 76/11/38 78/13/38 77/14/38
f 77/14/39 78/13/39 80/15/39 79/16/39
f 79/16/40 80/15/40 82/17/40 81/18/40
f 81/18/41 82/17/41 84/19/41 83/20/41
f 83/20/42 84/19/42 86/21/42 85/22/42
f 85/22/43 86/21/43 88/23/43 87/24/43
f 87/24/44 88/23/44 90/25/44 89/26/44
f 89/26/45 90/25/45 92/27/45 91/28/45
f 91/28/46 92/27/46 94/29/46 93/30/46
f 93/30/47 94/29/47 96/31/47 95/32/47
f 95/32/48 96/31/48 98/33/48 97/34/48
f 97/34/49 98/33/49 100/35/49 99/36/49
f 99/36/50 100/35/50 102/37/50 101/38/50
f 101/38/51 102/37/51 104/39/51 103/40/51
f 103/40/52 104/39/52 106/41/52 105/42/52
f 105/42/53 106/41/53 108/43/53 107/44/53
f 107/44/54 108/43/54 110/45/54 109/46/54
f 109/46/55 110/45/55 112/47/55 111/48/55
f 111/48/56 112/47/56 114/49/56 113/50/56
f 113/50/57 114/49/57 116/51/57 115/52/57
f 115/52/58 116/51/58 118/53/58 117/54/58
f 117/54/59 118/53/59 120/55/59 119/56/59
f 119/56/60 120/55/60 122/57/60 121/58/60
f 121/58/61 122/57/61 124/59/61 123/60/61
f 123/60/62 124/59/62 126/61/62 125/62/62
f 125/62/63 126/61/63 128/63/63 127/64/63
f 127/64/64 128/63/64 65/2/64 66/1/64
f 51/51/65 116/51/65 114/49/65 49/49/65
f 34/34/66 97/34/66 99/36/66 36/36/66
f 52/52/67 115/52/67 117/54/67 54/54/67
f 17/17/68 82/17/68 80/15/68 15/15/68
f 35/35/69 100/35/69 98/33/69 33/33/69
f 18/18/65 81/18/65 83/20/65 20/20/65
f 53/53/70 118/53/70 116/51/70 51/51/70
f 36/36/71 99/36/71 101/38/71 38/38/71
f 54/54/72 117/54/72 119/56/72 56/56/72
f 19/19/73 84/19/73 82/17/73 17/17/73
f 2/1/69 66/1/69 67/4/69 4/4/69
f 37/37/74 102/37/74 100/35/74 35/35/74
f 20/20/70 83/20/70 85/22/70 22/22/70
f 55/55/75 120/55/75 118/53/75 53/53/75
f 38/38/76 101/38/76 103/40/76 40/40/76
f 3/3/66 68/3/66 65/2/66 1/2/66
f 56/56/77 119/56/77 121/58/77 58/58/77
f 21/21/67 86/21/67 84/19/67 19/19/67
f 4/4/74 67/4/74 69/6/74 6/6/74
f 39/39/78 104/39/78 102/37/78 37/37/78
f 22/22/75 85/22/75 87/24/75 24/24/75
f 57/57/79 122/57/79 120/55/79 55/55/79
f 40/40/80 103/40/80 105/42/80 42/42/80
f 5/5/71 70/5/71 68/3/71 3/3/71
f 58/58/81 121/58/81 123/60/81 60/60/81
f 23/23/72 88/23/72 86/21/72 21/21/72
f 6/6/78 69/6/78 71/8/78 8/8/78
f 41/41/82 106/41/82 104/39/82 39/39/82
f 24/24/79 87/24/79 89/26/79 26/26/79
f 59/59/83 124/59/83 122/57/83 57/57/83
f 42/42/84 105/42/84 107/44/84 44/44/84
f 7/7/76 72/7/76 70/5/76 5/5/76
f 60/60/85 123/60/85 125/62/85 62/62/85
f 25/25/77 90/25/77 88/23/77 23/23/77
f 8/8/82 71/8/82 73/10/82 10/10/82
f 43/43/86 108/43/86 106/41/86 41/41/86
f 26/26/83 89/26/83 91/28/83 28/28/83
f 61/61/87 126/61/87 124/59/87 59/59/87
f 44/44/88 107/44/88 109/46/88 46/46/88
f 9/9/80 74/9/80 72/7/80 7/7/80
f 62/62/89 125/62/89 127/64/89 64/64/89
f 27/27/81 92/27/81 90/25/81 25/25/81
f 10/10/86 73/10/86 75/12/86 12/12/86
f 45/45/90 110/45/90 108/43/90 43/43/90
f 28/28/87 91/28/87 93/30/87 30/30/87
f 63/63/91 128/63/91 126/61/91 61/61/91
f 46/46/92 109/46/92 111/48/92 48/48/92
f 11/11/84 76/11/84 74/9/84 9/9/84
f 64/64/93 127/64/93 66/1/93 2/1/93
f 29/29/85 94/29/85 92/27/85 27/27/85
f 12/12/90 75/12/90 77/14/90 14/14/90
f 1/2/94 65/2/94 128/63/94 63/63/94
f 47/47/95 112/47/95 110/45/95 45/45/95
f 30/30/91 93/30/91 95/32/91 32/32/91
f 48/48/68 111/48/68 113/50/68 50/50/68
f 13/13/88 78/13/88 76/11/88 11/11/88
f 31/31/89 96/31/89 94/29/89 29/29/89
f 14/14/95 77/14/95 79/16/95 16/16/95
f 49/49/96 114/49/96 112/47/96 47/47/96
f 32/32/94 95/32/94 97/34/94 34/34/94
f 50/50/73 113/50/73 115/52/73 52/52/73
f 15/15/92 80/15/92 78/13/92 13/13/92
f 33/33/93 98/33/93 96/31/93 31/31/93
f 16/16/96 79/16/96 81/18/96 18/18/96
