# Blender 4.4.0
# www.blender.org
mtllib Circle No Middle.mtl
o Cylinder
v -0.000000 0.159062 -23.314419
v 0.199903 -0.106961 -23.496572
v -0.199903 -0.106961 -23.496572
v 4.548419 0.159062 -22.866438
v 4.780015 -0.106961 -23.006092
v 4.387892 -0.106961 -23.084091
v 8.922044 0.159062 -21.539713
v 9.176435 -0.106961 -21.631502
v 8.807063 -0.106961 -21.784502
v 12.952793 0.159062 -19.385235
v 13.220211 -0.106961 -19.425625
v 12.887785 -0.106961 -19.647745
v 16.485785 0.159062 -16.485783
v 16.755939 -0.106961 -16.473232
v 16.473234 -0.106961 -16.755938
v 19.385237 0.159062 -12.952793
v 19.647747 -0.106961 -12.887784
v 19.425627 -0.106961 -13.220211
v 21.539717 0.159062 -8.922044
v 21.784504 -0.106961 -8.807064
v 21.631504 -0.106961 -9.176436
v 22.866440 0.159062 -4.548420
v 23.084093 -0.106961 -4.387893
v 23.006094 -0.106961 -4.780016
v 23.314423 0.159062 -0.000000
v 23.496574 -0.106961 0.199903
v 23.496574 -0.106961 -0.199903
v 22.866440 0.159062 4.548419
v 23.006094 -0.106961 4.780015
v 23.084093 -0.106961 4.387892
v 21.539717 0.159062 8.922044
v 21.631504 -0.106961 9.176436
v 21.784504 -0.106961 8.807064
v 19.385237 0.159062 12.952793
v 19.425627 -0.106961 13.220211
v 19.647747 -0.106961 12.887784
v 16.485785 0.159062 16.485785
v 16.473234 -0.106961 16.755939
v 16.755939 -0.106961 16.473234
v 12.952793 0.159062 19.385237
v 12.887785 -0.106961 19.647747
v 13.220211 -0.106961 19.425627
v 8.922044 0.159062 21.539715
v 8.807063 -0.106961 21.784504
v 9.176435 -0.106961 21.631504
v 4.548419 0.159062 22.866440
v 4.387892 -0.106961 23.084093
v 4.780015 -0.106961 23.006094
v 0.000000 0.159062 23.314421
v -0.199903 -0.106961 23.496574
v 0.199903 -0.106961 23.496574
v -4.548420 0.159062 22.866440
v -4.780016 -0.106961 23.006094
v -4.387892 -0.106961 23.084093
v -8.922045 0.159062 21.539715
v -9.176436 -0.106961 21.631504
v -8.807064 -0.106961 21.784504
v -12.952792 0.159062 19.385237
v -13.220210 -0.106961 19.425627
v -12.887784 -0.106961 19.647747
v -16.485783 0.159062 16.485785
v -16.755938 -0.106961 16.473234
v -16.473232 -0.106961 16.755939
v -19.385235 0.159062 12.952793
v -19.647745 -0.106961 12.887784
v -19.425625 -0.106961 13.220211
v -21.539713 0.159062 8.922044
v -21.784500 -0.106961 8.807064
v -21.631502 -0.106961 9.176436
v -22.866438 0.159062 4.548419
v -23.084091 -0.106961 4.387892
v -23.006092 -0.106961 4.780015
v -23.314419 0.159062 0.000000
v -23.496571 -0.106961 -0.199903
v -23.496571 -0.106961 0.199903
v -22.866438 0.159062 -4.548420
v -23.006092 -0.106961 -4.780016
v -23.084091 -0.106961 -4.387893
v -21.539713 0.159062 -8.922044
v -21.631502 -0.106961 -9.176436
v -21.784500 -0.106961 -8.807064
v -19.385235 0.159062 -12.952793
v -19.425625 -0.106961 -13.220211
v -19.647745 -0.106961 -12.887784
v -16.485783 0.159062 -16.485783
v -16.473232 -0.106961 -16.755938
v -16.755938 -0.106961 -16.473232
v -12.952792 0.159062 -19.385235
v -12.887784 -0.106961 -19.647745
v -13.220210 -0.106961 -19.425625
v -8.922045 0.159062 -21.539713
v -8.807064 -0.106961 -21.784502
v -9.176436 -0.106961 -21.631502
v -4.548420 0.159062 -22.866438
v -4.387892 -0.106961 -23.084091
v -4.780016 -0.106961 -23.006092
v 8.991752 -0.106961 -21.708002
v 4.583956 -0.106961 -23.045092
vn 0.3157 0.5650 -0.7623
vn -0.0000 0.5650 -0.8251
vn 0.1610 0.5650 -0.8093
vn 0.3158 0.5650 -0.7623
vn 0.4584 0.5650 -0.6861
vn 0.5834 0.5650 -0.5834
vn 0.6861 0.5650 -0.4584
vn 0.7623 0.5650 -0.3157
vn 0.8093 0.5650 -0.1610
vn 0.8251 0.5650 -0.0000
vn 0.8093 0.5650 0.1610
vn 0.7623 0.5650 0.3157
vn 0.6861 0.5650 0.4584
vn 0.5834 0.5650 0.5834
vn 0.4584 0.5650 0.6861
vn 0.3157 0.5650 0.7623
vn 0.1610 0.5650 0.8093
vn -0.0000 0.5650 0.8251
vn -0.1610 0.5650 0.8093
vn -0.3157 0.5650 0.7623
vn -0.4584 0.5650 0.6861
vn -0.5834 0.5650 0.5834
vn -0.6861 0.5650 0.4584
vn -0.7623 0.5650 0.3157
vn -0.8093 0.5650 0.1610
vn -0.8251 0.5650 -0.0000
vn -0.8093 0.5650 -0.1610
vn -0.7623 0.5650 -0.3157
vn -0.6861 0.5650 -0.4584
vn -0.5834 0.5650 -0.5834
vn -0.4584 0.5650 -0.6861
vn -0.3157 0.5650 -0.7623
vn -0.1610 0.5650 -0.8093
vn 0.0782 0.6026 -0.7942
vn 0.2317 0.6026 -0.7637
vn 0.3762 0.6026 -0.7038
vn 0.5063 0.6026 -0.6169
vn 0.6169 0.6026 -0.5063
vn 0.7038 0.6026 -0.3762
vn 0.7637 0.6026 -0.2317
vn 0.7942 0.6026 -0.0782
vn 0.7942 0.6026 0.0782
vn 0.7637 0.6026 0.2317
vn 0.7038 0.6026 0.3762
vn 0.6169 0.6026 0.5063
vn 0.5063 0.6026 0.6169
vn 0.3762 0.6026 0.7038
vn 0.2317 0.6026 0.7637
vn 0.0782 0.6026 0.7942
vn -0.0782 0.6026 0.7942
vn -0.2317 0.6026 0.7637
vn -0.3762 0.6026 0.7038
vn -0.5063 0.6026 0.6169
vn -0.6169 0.6026 0.5063
vn -0.7038 0.6026 0.3762
vn -0.7637 0.6026 0.2317
vn -0.7942 0.6026 0.0782
vn -0.7942 0.6026 -0.0782
vn -0.7637 0.6026 -0.2317
vn -0.7038 0.6026 -0.3762
vn -0.6169 0.6026 -0.5063
vn -0.5063 0.6026 -0.6169
vn -0.3762 0.6026 -0.7038
vn -0.2317 0.6026 -0.7637
vn -0.0782 0.6026 -0.7942
vt 0.339882 0.472326
vt 0.341056 0.469828
vt 0.341767 0.471545
vt 0.250000 0.487940
vt 0.252040 0.489799
vt 0.247960 0.489799
vt 0.296420 0.483368
vt 0.298783 0.484793
vt 0.296782 0.485191
vt 0.343652 0.470765
vt 0.382192 0.447840
vt 0.384922 0.448252
vt 0.381529 0.450519
vt 0.418249 0.418249
vt 0.421006 0.418121
vt 0.418121 0.421006
vt 0.447840 0.382192
vt 0.450519 0.381529
vt 0.448252 0.384922
vt 0.469828 0.341056
vt 0.472326 0.339882
vt 0.470765 0.343652
vt 0.483368 0.296420
vt 0.485589 0.294782
vt 0.484793 0.298783
vt 0.487940 0.250000
vt 0.489799 0.247960
vt 0.489799 0.252040
vt 0.483368 0.203580
vt 0.484793 0.201217
vt 0.485589 0.205218
vt 0.469828 0.158944
vt 0.470765 0.156348
vt 0.472326 0.160118
vt 0.447840 0.117808
vt 0.448252 0.115078
vt 0.450519 0.118471
vt 0.418249 0.081751
vt 0.418121 0.078994
vt 0.421006 0.081879
vt 0.382192 0.052160
vt 0.381529 0.049481
vt 0.384922 0.051748
vt 0.341056 0.030172
vt 0.339882 0.027674
vt 0.343652 0.029235
vt 0.296420 0.016632
vt 0.294782 0.014411
vt 0.298783 0.015207
vt 0.250000 0.012060
vt 0.247960 0.010201
vt 0.252040 0.010201
vt 0.203580 0.016632
vt 0.201217 0.015207
vt 0.205218 0.014411
vt 0.158944 0.030172
vt 0.156348 0.029235
vt 0.160118 0.027674
vt 0.117808 0.052160
vt 0.115078 0.051748
vt 0.118471 0.049481
vt 0.081751 0.081751
vt 0.078994 0.081879
vt 0.081879 0.078994
vt 0.052160 0.117808
vt 0.049481 0.118471
vt 0.051748 0.115078
vt 0.030172 0.158944
vt 0.027674 0.160118
vt 0.029235 0.156348
vt 0.016632 0.203580
vt 0.014411 0.205218
vt 0.015207 0.201217
vt 0.012060 0.250000
vt 0.010201 0.252040
vt 0.010201 0.247960
vt 0.016632 0.296420
vt 0.015207 0.298783
vt 0.014411 0.294782
vt 0.030172 0.341056
vt 0.029235 0.343652
vt 0.027674 0.339882
vt 0.052160 0.382192
vt 0.051748 0.384922
vt 0.049481 0.381529
vt 0.081751 0.418249
vt 0.081879 0.421006
vt 0.078994 0.418121
vt 0.117808 0.447840
vt 0.118471 0.450519
vt 0.115078 0.448252
vt 0.158944 0.469828
vt 0.160118 0.472326
vt 0.156348 0.470765
vt 0.203580 0.483368
vt 0.205218 0.485589
vt 0.201217 0.484793
vt 0.294782 0.485589
vt 0.247960 0.010201
vt 0.201217 0.015207
vt 0.014411 0.205218
vt 0.010201 0.252040
vt 0.015207 0.298783
s 0
f 9/1/1 7/2/1 97/3/1
f 1/4/2 2/5/2 3/6/2
f 4/7/3 5/8/3 98/9/3
f 7/2/4 8/10/4 97/3/4
f 10/11/5 11/12/5 12/13/5
f 13/14/6 14/15/6 15/16/6
f 16/17/7 17/18/7 18/19/7
f 19/20/8 20/21/8 21/22/8
f 22/23/9 23/24/9 24/25/9
f 25/26/10 26/27/10 27/28/10
f 28/29/11 29/30/11 30/31/11
f 31/32/12 32/33/12 33/34/12
f 34/35/13 35/36/13 36/37/13
f 37/38/14 38/39/14 39/40/14
f 40/41/15 41/42/15 42/43/15
f 43/44/16 44/45/16 45/46/16
f 46/47/17 47/48/17 48/49/17
f 49/50/18 50/51/18 51/52/18
f 52/53/19 53/54/19 54/55/19
f 55/56/20 56/57/20 57/58/20
f 58/59/21 59/60/21 60/61/21
f 61/62/22 62/63/22 63/64/22
f 64/65/23 65/66/23 66/67/23
f 67/68/24 68/69/24 69/70/24
f 70/71/25 71/72/25 72/73/25
f 73/74/26 74/75/26 75/76/26
f 76/77/27 77/78/27 78/79/27
f 79/80/28 80/81/28 81/82/28
f 82/83/29 83/84/29 84/85/29
f 85/86/30 86/87/30 87/88/30
f 88/89/31 89/90/31 90/91/31
f 91/92/32 92/93/32 93/94/32
f 94/95/33 95/96/33 96/97/33
f 6/98/34 2/5/34 1/4/34
f 9/1/35 5/8/35 4/7/35 7/2/35
f 12/13/36 8/10/36 7/2/36 10/11/36
f 15/16/37 11/12/37 10/11/37 13/14/37
f 18/19/38 14/15/38 13/14/38 16/17/38
f 21/22/39 17/18/39 16/17/39 19/20/39
f 24/25/40 20/21/40 19/20/40 22/23/40
f 27/28/41 23/24/41 22/23/41 25/26/41
f 30/31/42 26/27/42 25/26/42 28/29/42
f 33/34/43 29/30/43 28/29/43 31/32/43
f 36/37/44 32/33/44 31/32/44 34/35/44
f 39/40/45 35/36/45 34/35/45 37/38/45
f 42/43/46 38/39/46 37/38/46 40/41/46
f 45/46/47 41/42/47 40/41/47 43/44/47
f 48/49/48 44/45/48 43/44/48 46/47/48
f 51/52/49 47/48/49 46/47/49 49/50/49
f 54/55/50 50/99/50 49/50/50 52/53/50
f 57/58/51 53/100/51 52/53/51 55/56/51
f 60/61/52 56/57/52 55/56/52 58/59/52
f 63/64/53 59/60/53 58/59/53 61/62/53
f 66/67/54 62/63/54 61/62/54 64/65/54
f 69/70/55 65/66/55 64/65/55 67/68/55
f 72/73/56 68/69/56 67/68/56 70/71/56
f 75/76/57 71/101/57 70/71/57 73/74/57
f 78/79/58 74/102/58 73/74/58 76/77/58
f 81/82/59 77/103/59 76/77/59 79/80/59
f 84/85/60 80/81/60 79/80/60 82/83/60
f 87/88/61 83/84/61 82/83/61 85/86/61
f 90/91/62 86/87/62 85/86/62 88/89/62
f 93/94/63 89/90/63 88/89/63 91/92/63
f 96/97/64 92/93/64 91/92/64 94/95/64
f 3/6/65 95/96/65 94/95/65 1/4/65
f 6/98/3 4/7/3 98/9/3
f 4/7/34 6/98/34 1/4/34
